<svg width="16" height="12" viewBox="0 0 16 12" fill="none" xmlns="http://www.w3.org/2000/svg">
<path d="M14.5 0.12793H1.50001C0.672854 0.12793 0 0.7584 0 1.53345V9.96653C0 10.7416 0.672854 11.3721 1.50001 11.3721H14.5C15.3271 11.3721 16 10.7416 16 9.96653V1.53345C16 0.7584 15.3271 0.12793 14.5 0.12793V0.12793ZM14.5 1.06493C14.5679 1.06493 14.6325 1.07814 14.6916 1.10121L8 6.53556L1.30833 1.10121C1.36742 1.07817 1.43204 1.06493 1.49998 1.06493H14.5ZM14.5 10.435H1.50001C1.22414 10.435 0.999996 10.225 0.999996 9.9665V2.09116L7.67236 7.50962C7.76661 7.58601 7.8833 7.624 8 7.624C8.1167 7.624 8.23339 7.58604 8.32764 7.50962L15 2.09116V9.96653C15 10.225 14.7759 10.435 14.5 10.435V10.435Z" fill="#2196F3"/>
</svg>
