<svg width="10" height="16" viewBox="0 0 10 16" fill="none" xmlns="http://www.w3.org/2000/svg">
<path d="M8.5 0.124146H1.5C0.672848 0.124146 0 0.754611 0 1.52966V13.7108C0 14.4858 0.672848 15.1163 1.5 15.1163H8.5C9.32715 15.1163 10 14.4858 10 13.7108V1.52966C10 0.754611 9.32715 0.124146 8.5 0.124146ZM1.5 1.06116H8.5C8.77588 1.06116 9 1.27116 9 1.52966V11.3683H1V1.52966C1 1.27116 1.22412 1.06116 1.5 1.06116ZM8.5 14.1793H1.5C1.22412 14.1793 1 13.9693 1 13.7108V12.3053H9V13.7108C9 13.9693 8.77588 14.1793 8.5 14.1793Z" fill="#757575"/>
</svg>
