<svg width="89" height="47" viewBox="0 0 89 47" fill="none" xmlns="http://www.w3.org/2000/svg">
<path d="M45.2404 22.1033C44.8224 21.4932 44.6225 20.772 44.6699 20.0462V17.0635C44.6699 16.1492 44.859 15.4544 45.2372 14.9791C45.6154 14.5037 46.2649 14.267 47.1858 14.2691C48.0512 14.2691 48.6654 14.4713 49.0287 14.8759C49.4249 15.3921 49.6176 16.0233 49.5735 16.66V17.3609H48.0255V16.6509C48.031 16.4185 48.016 16.1861 47.9807 15.9561C47.9584 15.7988 47.8804 15.6533 47.7595 15.5434C47.6006 15.425 47.4003 15.3675 47.1987 15.3826C46.9866 15.3676 46.7762 15.4282 46.6089 15.5525C46.4741 15.6743 46.3842 15.8338 46.3525 16.0076C46.3081 16.2511 46.2878 16.4979 46.2916 16.745V20.3647C46.2672 20.714 46.3355 21.0634 46.4904 21.3812C46.5673 21.4887 46.6743 21.574 46.7993 21.6275C46.9243 21.6811 47.0625 21.7008 47.1987 21.6846C47.397 21.7001 47.5937 21.6412 47.7467 21.5208C47.8728 21.4023 47.954 21.2476 47.9775 21.0808C48.0136 20.8407 48.0297 20.5982 48.0255 20.3556V19.6214H49.5735V20.2919C49.617 20.9556 49.4289 21.6144 49.0383 22.1671C48.6825 22.61 48.0768 22.8315 47.1858 22.8315C46.2949 22.8315 45.6218 22.5949 45.2404 22.1033Z" fill="#AFB1B8"/>
<path d="M51.6856 22.1337C51.2946 21.6694 51.0991 20.9928 51.0991 20.0977V16.9604C51.0991 16.0744 51.2946 15.4038 51.6856 14.9487C52.0766 14.4936 52.7304 14.267 53.647 14.2691C54.5572 14.2691 55.2078 14.4956 55.5988 14.9487C55.9898 15.4038 56.1885 16.0744 56.1885 16.9604V20.0977C56.1885 20.9837 55.9898 21.6634 55.5924 22.1306C55.195 22.5979 54.5476 22.8315 53.647 22.8315C52.7464 22.8315 52.0798 22.5949 51.6856 22.1337ZM54.3681 21.3812C54.5081 21.0904 54.5719 20.7719 54.554 20.4527V16.6115C54.572 16.2985 54.5093 15.9861 54.3713 15.7012C54.2928 15.5914 54.1832 15.5047 54.0551 15.4511C53.9271 15.3974 53.7856 15.379 53.647 15.3978C53.5079 15.3794 53.3662 15.3981 53.2377 15.4517C53.1093 15.5053 52.9991 15.5917 52.9195 15.7012C52.7786 15.9853 52.7147 16.2981 52.7336 16.6115V20.4709C52.7141 20.7902 52.778 21.1091 52.9195 21.3994C53.0097 21.4973 53.1211 21.5757 53.246 21.6295C53.3709 21.6832 53.5066 21.711 53.6438 21.711C53.781 21.711 53.9167 21.6832 54.0416 21.6295C54.1665 21.5757 54.2779 21.4973 54.3681 21.3994V21.3812Z" fill="#AFB1B8"/>
<path d="M58.0505 14.3606H59.7171L60.9702 20.1492L62.2522 14.3606H63.8739L64.0374 22.7158H62.8387L62.7105 16.909L61.4734 22.7158H60.5119L59.2299 16.8878L59.1114 22.7158H57.8999L58.0505 14.3606Z" fill="#AFB1B8"/>
<path d="M65.9061 14.3606H68.5021C69.9977 14.3606 70.7455 15.1514 70.7455 16.7331C70.7455 18.248 69.9581 19.0044 68.3835 19.0024H67.4989V22.7158H65.8965L65.9061 14.3606ZM68.1239 17.9314C68.2822 17.9505 68.443 17.9367 68.5952 17.8911C68.7474 17.8456 68.8873 17.7693 69.0052 17.6675C69.189 17.3853 69.27 17.0539 69.236 16.724C69.2444 16.4691 69.2185 16.2142 69.1591 15.9655C69.1362 15.8824 69.0961 15.8045 69.0411 15.7363C68.986 15.668 68.9172 15.6108 68.8386 15.5681C68.6161 15.4671 68.3702 15.4211 68.1239 15.4346H67.5021V17.9314H68.1239Z" fill="#AFB1B8"/>
<path d="M73.0559 14.3606H74.777L76.5428 22.7158H75.0494L74.7 20.7893H73.1649L72.8059 22.7158H71.29L73.0559 14.3606ZM74.527 19.8215L73.9277 16.3144L73.3283 19.8215H74.527Z" fill="#AFB1B8"/>
<path d="M77.969 14.3606H79.0908L81.2381 19.1268V14.3606H82.5681V22.7158H81.5009L79.3407 17.7403V22.7158H77.9658L77.969 14.3606Z" fill="#AFB1B8"/>
<path d="M85.6836 19.5301L83.8984 14.3723H85.4015L86.4912 17.6854L87.5136 14.3723H88.9846L87.2219 19.5301V22.7158H85.6836V19.5301Z" fill="#AFB1B8"/>
<path d="M47.7146 26.3689V26.8058H46.407V30.2009H45.8589V26.8058H44.5449V26.3689H47.7146Z" fill="#AFB1B8"/>
<path d="M51.8141 30.2012H51.391C51.3481 30.2037 51.3057 30.1907 51.2724 30.1648C51.2404 30.1425 51.2159 30.112 51.2019 30.0768L50.8238 29.1666H49.0097L48.6316 30.0768C48.6208 30.1149 48.6011 30.1501 48.5739 30.18C48.5403 30.2054 48.4982 30.2183 48.4553 30.2164H48.0322L49.6347 26.3845H50.1924L51.8141 30.2012ZM49.1604 28.7783H50.6731L50.0321 27.2188C49.9848 27.1009 49.9452 26.9803 49.9135 26.8578C49.8911 26.9306 49.8719 27.0004 49.8526 27.0611L49.795 27.2219L49.1604 28.7783Z" fill="#AFB1B8"/>
<path d="M54.5766 29.8248C54.677 29.8298 54.7775 29.8298 54.8779 29.8248C54.9645 29.8164 55.0503 29.8012 55.1343 29.7793C55.2128 29.7611 55.2899 29.7378 55.365 29.7095C55.4356 29.6822 55.5061 29.6488 55.5798 29.6155V28.7537H54.9388C54.9229 28.7546 54.9071 28.7523 54.8922 28.7471C54.8773 28.7419 54.8637 28.7338 54.8523 28.7234C54.8417 28.7148 54.8334 28.704 54.8279 28.6919C54.8223 28.6799 54.8197 28.6667 54.8202 28.6536V28.3593H56.0637V29.8279C55.9622 29.8966 55.855 29.9575 55.7432 30.0099C55.629 30.0633 55.5099 30.107 55.3875 30.1404C55.2564 30.1769 55.1224 30.2033 54.9869 30.2193C54.8315 30.2356 54.6753 30.2437 54.5189 30.2436C54.2425 30.2458 53.9683 30.1973 53.7113 30.101C53.4714 30.0096 53.2534 29.8734 53.0703 29.7004C52.8919 29.5257 52.7514 29.3195 52.6569 29.0936C52.5559 28.8396 52.5059 28.5699 52.5095 28.2986C52.5061 28.0255 52.555 27.7541 52.6537 27.4975C52.7459 27.2704 52.8866 27.0638 53.0671 26.8906C53.25 26.7182 53.4681 26.583 53.7081 26.4931C53.9825 26.3954 54.2738 26.347 54.567 26.3505C54.7162 26.3503 54.8652 26.3615 55.0125 26.3839C55.1428 26.404 55.2706 26.4365 55.3939 26.481C55.506 26.5209 55.6134 26.5717 55.7144 26.6327C55.8126 26.6926 55.9058 26.7595 55.9932 26.833L55.8394 27.0697C55.8273 27.0913 55.8094 27.1094 55.7874 27.1222C55.7654 27.1351 55.7402 27.142 55.7144 27.1425C55.6789 27.1414 55.6445 27.1309 55.615 27.1121C55.567 27.0879 55.5157 27.0575 55.458 27.0211C55.3898 26.9807 55.318 26.9461 55.2433 26.9179C55.1477 26.8817 55.0491 26.8532 54.9484 26.833C54.8142 26.8096 54.6779 26.7984 54.5414 26.7996C54.3299 26.7974 54.12 26.8334 53.9228 26.9058C53.7445 26.9735 53.5838 27.0771 53.4517 27.2092C53.3189 27.347 53.2174 27.5092 53.1536 27.6856C53.0105 28.1007 53.0105 28.5481 53.1536 28.9631C53.2238 29.1433 53.333 29.3076 53.4741 29.4455C53.6056 29.577 53.7651 29.6804 53.9421 29.749C54.1458 29.8152 54.3619 29.841 54.5766 29.8248Z" fill="#AFB1B8"/>
<path d="M59.6851 29.764H61.4351V30.2009H59.1499V26.3689H59.698L59.6851 29.764Z" fill="#AFB1B8"/>
<path d="M63.2556 30.2009H62.7075V26.3689H63.2556V30.2009Z" fill="#AFB1B8"/>
<path d="M65.2939 26.3871C65.3265 26.4047 65.3548 26.4285 65.3772 26.4569L67.72 29.3455C67.7168 29.3001 67.7168 29.2545 67.72 29.209C67.72 29.1665 67.72 29.124 67.72 29.0846V26.3538H68.1975V30.2012H67.9219C67.8811 30.2043 67.8401 30.197 67.8033 30.18C67.77 30.1609 67.7407 30.1362 67.7168 30.1071L65.3772 27.2216C65.3772 27.2671 65.3772 27.3095 65.3772 27.352C65.3772 27.3945 65.3772 27.434 65.3772 27.4704V30.2012H64.9189V26.3689H65.2042C65.2351 26.369 65.2657 26.3752 65.2939 26.3871Z" fill="#AFB1B8"/>
<path d="M72.2323 26.3689V26.7906H70.2901V28.0559H71.8637V28.4624H70.2901V29.7702H72.2323V30.1919H69.7261V26.3689H72.2323Z" fill="#AFB1B8"/>
<path d="M14.8035 2.70391L39.1385 9.24527V32.1673L14.8035 25.629V2.70391ZM13.2427 0.75V26.7425L40.696 34.1243V8.13482L13.2427 0.75Z" fill="#AFB1B8"/>
<path d="M27.9565 46.1902L0.5 38.8022V12.8125L27.9565 20.1974V46.1902Z" fill="#AFB1B8"/>
<path d="M13.6978 2.40958L37.7155 8.86891L27.5014 18.5412L3.48057 12.0788L13.6978 2.40958ZM13.2427 0.75L0.5 12.8131L27.9565 20.1978L40.696 8.13469L13.2427 0.75Z" fill="#AFB1B8"/>
<path d="M29.5015 44.728L40.6962 34.1274L29.5015 31.1147V44.728Z" fill="#AFB1B8"/>
</svg>
