<svg width="81" height="43" viewBox="0 0 81 43" fill="none" xmlns="http://www.w3.org/2000/svg">
<path d="M12.9022 13.5806H12.8995C10.6372 13.5806 8.80322 15.3677 8.80322 17.5723V17.5749C8.80322 19.7795 10.6372 21.5667 12.8995 21.5667H12.9022C15.1645 21.5667 16.9985 19.7795 16.9985 17.5749V17.5723C16.9985 15.3677 15.1645 13.5806 12.9022 13.5806Z" fill="#2196F3"/>
<path d="M43.1368 12.3045C43.1304 9.24242 41.8795 6.30752 39.6579 4.14207C37.4363 1.97661 34.425 0.756953 31.2828 0.75V0.75C28.1397 0.755563 25.1269 1.97461 22.9041 4.14022C20.6814 6.30582 19.4298 9.24151 19.4233 12.3045V29.1902C19.4233 29.1902 43.1341 26.6167 43.1368 12.3071V12.3045Z" fill="#2196F3"/>
<path d="M0.5 34.7323C0.505699 36.8629 1.37656 38.9047 2.92228 40.4115C4.46799 41.9183 6.5629 42.7677 8.74923 42.7739C10.9351 42.7677 13.0296 41.9187 14.5752 40.4125C16.1209 38.9062 16.992 36.8651 16.9985 34.7349V22.9856C16.9985 22.9856 0.5 24.7776 0.5 34.7323ZM8.74923 36.8374C8.32198 36.8374 7.90433 36.714 7.54909 36.4826C7.19385 36.2513 6.91697 35.9226 6.75347 35.5379C6.58997 35.1532 6.54719 34.73 6.63054 34.3216C6.7139 33.9132 6.91963 33.5381 7.22174 33.2437C7.52385 32.9493 7.90876 32.7488 8.3278 32.6676C8.74683 32.5864 9.18117 32.6281 9.5759 32.7874C9.97062 32.9467 10.308 33.2165 10.5454 33.5627C10.7827 33.9089 10.9094 34.3159 10.9094 34.7323C10.9105 35.0094 10.8554 35.284 10.7473 35.5403C10.6392 35.7966 10.4803 36.0296 10.2796 36.226C10.0789 36.4223 9.84039 36.578 9.57777 36.6843C9.31516 36.7906 9.03359 36.8453 8.74923 36.8453V36.8374Z" fill="#2196F3"/>
<path d="M25.5894 35.5312H23.9019V37.2744H23.0229V33.0088H25.8003V33.7207H23.9019V34.8223H25.5894V35.5312ZM29.814 35.2383C29.814 35.6582 29.7397 36.0264 29.5913 36.3428C29.4429 36.6592 29.23 36.9033 28.9526 37.0752C28.6772 37.2471 28.3608 37.333 28.0034 37.333C27.6499 37.333 27.3345 37.248 27.0571 37.0781C26.7798 36.9082 26.5649 36.666 26.4126 36.3516C26.2603 36.0352 26.1831 35.6719 26.1812 35.2617V35.0508C26.1812 34.6309 26.2563 34.2617 26.4067 33.9434C26.5591 33.623 26.7729 33.3779 27.0483 33.208C27.3257 33.0361 27.6421 32.9502 27.9976 32.9502C28.353 32.9502 28.6685 33.0361 28.9438 33.208C29.2212 33.3779 29.4351 33.623 29.5854 33.9434C29.7378 34.2617 29.814 34.6299 29.814 35.0479V35.2383ZM28.9233 35.0449C28.9233 34.5977 28.8433 34.2578 28.6831 34.0254C28.5229 33.793 28.2944 33.6768 27.9976 33.6768C27.7026 33.6768 27.4751 33.792 27.3149 34.0225C27.1548 34.251 27.0737 34.5869 27.0718 35.0303V35.2383C27.0718 35.6738 27.1519 36.0117 27.312 36.252C27.4722 36.4922 27.7026 36.6123 28.0034 36.6123C28.2983 36.6123 28.5249 36.4971 28.6831 36.2666C28.8413 36.0342 28.9214 35.6963 28.9233 35.2529V35.0449ZM32.6646 36.1553C32.6646 35.9893 32.606 35.8623 32.4888 35.7744C32.3716 35.6846 32.1606 35.5908 31.856 35.4932C31.5513 35.3936 31.3101 35.2959 31.1323 35.2002C30.6479 34.9385 30.4058 34.5859 30.4058 34.1426C30.4058 33.9121 30.4702 33.707 30.5991 33.5273C30.73 33.3457 30.9165 33.2041 31.1587 33.1025C31.4028 33.001 31.6763 32.9502 31.979 32.9502C32.2837 32.9502 32.5552 33.0059 32.7935 33.1172C33.0317 33.2266 33.2163 33.3818 33.3472 33.583C33.48 33.7842 33.5464 34.0127 33.5464 34.2686H32.6675C32.6675 34.0732 32.606 33.9219 32.4829 33.8145C32.3599 33.7051 32.187 33.6504 31.9644 33.6504C31.7495 33.6504 31.5825 33.6963 31.4634 33.7881C31.3442 33.8779 31.2847 33.9971 31.2847 34.1455C31.2847 34.2842 31.354 34.4004 31.4927 34.4941C31.6333 34.5879 31.8394 34.6758 32.1108 34.7578C32.6108 34.9082 32.9751 35.0947 33.2036 35.3174C33.4321 35.54 33.5464 35.8174 33.5464 36.1494C33.5464 36.5186 33.4067 36.8086 33.1274 37.0195C32.8481 37.2285 32.4722 37.333 31.9995 37.333C31.6714 37.333 31.3726 37.2734 31.103 37.1543C30.8335 37.0332 30.6274 36.8682 30.4849 36.6592C30.3442 36.4502 30.2739 36.208 30.2739 35.9326H31.1558C31.1558 36.4033 31.437 36.6387 31.9995 36.6387C32.2085 36.6387 32.3716 36.5967 32.4888 36.5127C32.606 36.4268 32.6646 36.3076 32.6646 36.1553ZM37.355 33.7207H36.0483V37.2744H35.1694V33.7207H33.8804V33.0088H37.355V33.7207ZM40.4253 35.4258H38.7378V36.5684H40.7183V37.2744H37.8589V33.0088H40.7124V33.7207H38.7378V34.7373H40.4253V35.4258ZM42.813 35.7129H42.1128V37.2744H41.2339V33.0088H42.8188C43.3228 33.0088 43.7114 33.1211 43.9849 33.3457C44.2583 33.5703 44.395 33.8877 44.395 34.2979C44.395 34.5889 44.3315 34.832 44.2046 35.0273C44.0796 35.2207 43.8892 35.375 43.6333 35.4902L44.5562 37.2334V37.2744H43.6128L42.813 35.7129ZM42.1128 35.001H42.8218C43.0425 35.001 43.2134 34.9453 43.3345 34.834C43.4556 34.7207 43.5161 34.5654 43.5161 34.3682C43.5161 34.167 43.4585 34.0088 43.3433 33.8936C43.23 33.7783 43.0552 33.7207 42.8188 33.7207H42.1128V35.001ZM47.439 35.7715V37.2744H46.5601V33.0088H48.2241C48.5444 33.0088 48.8257 33.0674 49.0679 33.1846C49.312 33.3018 49.4995 33.4688 49.6304 33.6855C49.7612 33.9004 49.8267 34.1455 49.8267 34.4209C49.8267 34.8389 49.6831 35.1689 49.396 35.4111C49.1108 35.6514 48.7153 35.7715 48.2095 35.7715H47.439ZM47.439 35.0596H48.2241C48.4565 35.0596 48.6333 35.0049 48.7544 34.8955C48.8774 34.7861 48.939 34.6299 48.939 34.4268C48.939 34.2178 48.8774 34.0488 48.7544 33.9199C48.6313 33.791 48.4614 33.7246 48.2446 33.7207H47.439V35.0596ZM52.9995 35.4258H51.312V36.5684H53.2925V37.2744H50.4331V33.0088H53.2866V33.7207H51.312V34.7373H52.9995V35.4258ZM57.0776 33.7207H55.771V37.2744H54.8921V33.7207H53.603V33.0088H57.0776V33.7207ZM60.1479 35.4258H58.4604V36.5684H60.4409V37.2744H57.5815V33.0088H60.4351V33.7207H58.4604V34.7373H60.1479V35.4258ZM62.5356 35.7129H61.8354V37.2744H60.9565V33.0088H62.5415C63.0454 33.0088 63.4341 33.1211 63.7075 33.3457C63.981 33.5703 64.1177 33.8877 64.1177 34.2979C64.1177 34.5889 64.0542 34.832 63.9272 35.0273C63.8022 35.2207 63.6118 35.375 63.356 35.4902L64.2788 37.2334V37.2744H63.3354L62.5356 35.7129ZM61.8354 35.001H62.5444C62.7651 35.001 62.936 34.9453 63.0571 34.834C63.1782 34.7207 63.2388 34.5654 63.2388 34.3682C63.2388 34.167 63.1812 34.0088 63.0659 33.8936C62.9526 33.7783 62.7778 33.7207 62.5415 33.7207H61.8354V35.001ZM67.0005 36.1553C67.0005 35.9893 66.9419 35.8623 66.8247 35.7744C66.7075 35.6846 66.4966 35.5908 66.1919 35.4932C65.8872 35.3936 65.646 35.2959 65.4683 35.2002C64.9839 34.9385 64.7417 34.5859 64.7417 34.1426C64.7417 33.9121 64.8062 33.707 64.9351 33.5273C65.0659 33.3457 65.2524 33.2041 65.4946 33.1025C65.7388 33.001 66.0122 32.9502 66.3149 32.9502C66.6196 32.9502 66.8911 33.0059 67.1294 33.1172C67.3677 33.2266 67.5522 33.3818 67.6831 33.583C67.8159 33.7842 67.8823 34.0127 67.8823 34.2686H67.0034C67.0034 34.0732 66.9419 33.9219 66.8188 33.8145C66.6958 33.7051 66.5229 33.6504 66.3003 33.6504C66.0854 33.6504 65.9185 33.6963 65.7993 33.7881C65.6802 33.8779 65.6206 33.9971 65.6206 34.1455C65.6206 34.2842 65.6899 34.4004 65.8286 34.4941C65.9692 34.5879 66.1753 34.6758 66.4468 34.7578C66.9468 34.9082 67.311 35.0947 67.5396 35.3174C67.7681 35.54 67.8823 35.8174 67.8823 36.1494C67.8823 36.5186 67.7427 36.8086 67.4634 37.0195C67.1841 37.2285 66.8081 37.333 66.3354 37.333C66.0073 37.333 65.7085 37.2734 65.439 37.1543C65.1694 37.0332 64.9634 36.8682 64.8208 36.6592C64.6802 36.4502 64.6099 36.208 64.6099 35.9326H65.4917C65.4917 36.4033 65.7729 36.6387 66.3354 36.6387C66.5444 36.6387 66.7075 36.5967 66.8247 36.5127C66.9419 36.4268 67.0005 36.3076 67.0005 36.1553Z" fill="#2196F3"/>
</svg>
