<svg width="45" height="50" viewBox="0 0 45 50" fill="none" xmlns="http://www.w3.org/2000/svg">
<path d="M6.5 0.75L13.8076 7.66796H34.1924V26.9658L41.5 33.8838V0.75H6.5Z" fill="#AFB1B8"/>
<path d="M0.5 7.37646V39.5637H34.5V26.7695L14.0231 7.38443L0.5 7.37646ZM28.0231 34.8555H5.88008V13.2079H7.4453V33.3897H28.0231V34.8555Z" fill="#AFB1B8"/>
<path d="M10.291 45.5337L11.1089 43.8491H11.7925L10.6011 46.0952V47.4038H9.98096V46.0952L8.78711 43.8491H9.47314L10.291 45.5337ZM13.8018 46.5762H12.4248L12.1367 47.4038H11.4946L12.8374 43.8491H13.3916L14.7368 47.4038H14.0923L13.8018 46.5762ZM12.5981 46.0781H13.6284L13.1133 44.6035L12.5981 46.0781ZM16.2358 46.4443C16.2358 46.2799 16.2806 46.1294 16.3701 45.9927C16.4596 45.8543 16.6362 45.6908 16.8999 45.502C16.7616 45.3278 16.6647 45.1797 16.6094 45.0576C16.5557 44.9355 16.5288 44.8175 16.5288 44.7036C16.5288 44.4253 16.6134 44.2056 16.7827 44.0444C16.952 43.8817 17.1799 43.8003 17.4663 43.8003C17.7251 43.8003 17.9367 43.8768 18.1011 44.0298C18.2671 44.1812 18.3501 44.3691 18.3501 44.5938C18.3501 44.7419 18.3127 44.8786 18.2378 45.0039C18.1629 45.1276 18.04 45.2513 17.8691 45.375L17.6274 45.5508L18.3135 46.3613C18.4128 46.166 18.4624 45.9487 18.4624 45.7095H18.9775C18.9775 46.1473 18.875 46.5062 18.6699 46.7861L19.1924 47.4038H18.5039L18.3037 47.167C18.0498 47.3574 17.7471 47.4526 17.3955 47.4526C17.0439 47.4526 16.7624 47.3599 16.5508 47.1743C16.3408 46.9871 16.2358 46.7438 16.2358 46.4443ZM17.4126 46.979C17.6128 46.979 17.8 46.9123 17.9741 46.7788L17.1978 45.8633L17.1221 45.917C16.9268 46.0651 16.8291 46.2344 16.8291 46.4248C16.8291 46.5892 16.882 46.7227 16.9878 46.8252C17.0936 46.9277 17.2352 46.979 17.4126 46.979ZM17.0854 44.689C17.0854 44.8257 17.1693 44.9974 17.3369 45.2041L17.6079 45.0186L17.6836 44.9575C17.7845 44.868 17.835 44.7533 17.835 44.6133C17.835 44.5205 17.8 44.4416 17.73 44.3765C17.66 44.3097 17.5713 44.2764 17.4639 44.2764C17.3483 44.2764 17.2563 44.3154 17.188 44.3936C17.1196 44.4717 17.0854 44.5701 17.0854 44.689ZM23.543 46.2466C23.5072 46.6258 23.3672 46.922 23.123 47.1353C22.8789 47.3468 22.5542 47.4526 22.1489 47.4526C21.8657 47.4526 21.6159 47.3859 21.3994 47.2524C21.1846 47.1174 21.0186 46.9261 20.9014 46.6787C20.7842 46.4313 20.7231 46.144 20.7183 45.8169V45.4849C20.7183 45.1496 20.7777 44.8542 20.8965 44.5986C21.0153 44.3431 21.1854 44.1462 21.4067 44.0078C21.6297 43.8695 21.8869 43.8003 22.1782 43.8003C22.5705 43.8003 22.8862 43.9069 23.1255 44.1201C23.3647 44.3333 23.5039 44.6344 23.543 45.0234H22.9277C22.8984 44.7679 22.8236 44.584 22.7031 44.4717C22.5843 44.3577 22.4093 44.3008 22.1782 44.3008C21.9097 44.3008 21.703 44.3993 21.5581 44.5962C21.4149 44.7915 21.3416 45.0788 21.3384 45.458V45.7729C21.3384 46.1571 21.4067 46.45 21.5435 46.6519C21.6818 46.8537 21.8836 46.9546 22.1489 46.9546C22.3914 46.9546 22.5737 46.9001 22.6958 46.791C22.8179 46.682 22.8952 46.5005 22.9277 46.2466H23.543ZM26.9341 45.7192C26.9341 46.0675 26.8739 46.3735 26.7534 46.6372C26.633 46.8993 26.4604 47.1011 26.2358 47.2427C26.0129 47.3826 25.7557 47.4526 25.4644 47.4526C25.1763 47.4526 24.9191 47.3826 24.6929 47.2427C24.4683 47.1011 24.2941 46.9001 24.1704 46.6396C24.0483 46.3792 23.9865 46.0789 23.9849 45.7388V45.5386C23.9849 45.1919 24.0459 44.8859 24.168 44.6206C24.2917 44.3553 24.465 44.1527 24.688 44.0127C24.9126 43.8711 25.1698 43.8003 25.4595 43.8003C25.7492 43.8003 26.0055 43.8703 26.2285 44.0103C26.4531 44.1486 26.6265 44.3488 26.7485 44.6108C26.8706 44.8713 26.9325 45.1748 26.9341 45.5215V45.7192ZM26.3164 45.5337C26.3164 45.1398 26.2415 44.8379 26.0918 44.6279C25.9437 44.418 25.7329 44.313 25.4595 44.313C25.1925 44.313 24.9834 44.418 24.832 44.6279C24.6823 44.8363 24.6058 45.1317 24.6025 45.5142V45.7192C24.6025 46.1099 24.6782 46.4118 24.8296 46.625C24.9826 46.8382 25.1942 46.9448 25.4644 46.9448C25.7378 46.9448 25.9478 46.8407 26.0942 46.6323C26.2424 46.424 26.3164 46.1196 26.3164 45.7192V45.5337Z" fill="#AFB1B8"/>
</svg>
