<svg width="60" height="48" viewBox="0 0 60 48" fill="none" xmlns="http://www.w3.org/2000/svg">
<g clip-path="url(#clip0)">
<path d="M4.98764 40.0278C5.21752 40.3134 5.33998 40.6712 5.33356 41.0384C5.34529 41.278 5.3032 41.5171 5.21042 41.738C5.11763 41.959 4.97652 42.1562 4.79754 42.315C4.35095 42.6537 3.79769 42.8192 3.23933 42.7813H0.5V36.3763H3.18323C3.71289 36.3409 4.23833 36.4913 4.66977 36.8018C4.84305 36.9474 4.98026 37.1315 5.07058 37.3395C5.1609 37.5474 5.20185 37.7736 5.19021 38.0002C5.20595 38.3535 5.09543 38.7009 4.87857 38.9796C4.67037 39.2341 4.38265 39.4105 4.06206 39.4802C4.42548 39.5468 4.75352 39.7409 4.98764 40.0278ZM1.77461 39.0609H2.92146C3.1821 39.0803 3.44097 39.0048 3.6507 38.8482C3.73681 38.7698 3.8038 38.6726 3.84649 38.5641C3.88918 38.4556 3.90643 38.3387 3.89689 38.2224C3.90499 38.1065 3.88738 37.9903 3.84535 37.8821C3.80332 37.7739 3.7379 37.6764 3.65381 37.5966C3.43781 37.4356 3.1709 37.3588 2.90276 37.3807H1.77461V39.0609ZM3.76289 41.5172C3.85493 41.4369 3.92729 41.3365 3.97432 41.2236C4.02134 41.1107 4.04178 40.9885 4.03402 40.8663C4.04104 40.7428 4.01967 40.6193 3.97158 40.5054C3.92349 40.3914 3.84995 40.2901 3.75666 40.2093C3.53228 40.0422 3.25632 39.9602 2.97755 39.9777H1.77461V41.7393H2.99313C3.2674 41.7552 3.53889 41.6769 3.76289 41.5172Z" fill="#AFB1B8"/>
<path d="M10.4724 42.7813L8.97968 40.2781H8.41873V42.7813H7.13477V36.3763H9.56557C10.1783 36.3334 10.784 36.5283 11.2578 36.9208C11.5976 37.2684 11.8025 37.7264 11.8357 38.2124C11.8688 38.6983 11.728 39.1801 11.4385 39.571C11.1386 39.9159 10.729 40.1459 10.2792 40.2218L11.8686 42.7813H10.4724ZM8.41873 39.4052H9.46896C10.1982 39.4052 10.5628 39.0818 10.5628 38.4352C10.5703 38.3031 10.5503 38.171 10.5041 38.0471C10.458 37.9232 10.3867 37.8103 10.2948 37.7155C10.0644 37.5231 9.76757 37.4298 9.46896 37.4558H8.40626L8.41873 39.4052Z" fill="#AFB1B8"/>
<path d="M17.4905 41.492H14.932L14.4801 42.7811H13.1338L15.4836 36.4481H16.9389L19.2794 42.7811H17.9331L17.4905 41.492ZM17.1477 40.522L16.2128 37.8186L15.2779 40.522H17.1477Z" fill="#AFB1B8"/>
<path d="M26.2759 42.7812H25.0013L22.1436 38.4257V42.7812H20.8721V36.3762H22.1436L25.0013 40.7568V36.3762H26.2759V42.7812Z" fill="#AFB1B8"/>
<path d="M33.5497 41.2481C33.2862 41.7317 32.8846 42.125 32.3966 42.3776C31.8418 42.659 31.2261 42.7977 30.6047 42.7813H28.3359V36.3763H30.6047C31.225 36.36 31.8399 36.4953 32.3966 36.7706C32.8845 37.0174 33.2865 37.4069 33.5497 37.8876C33.8121 38.4085 33.9488 38.9841 33.9488 39.5678C33.9488 40.1516 33.8121 40.7272 33.5497 41.2481ZM32.0912 41.0948C32.455 40.6693 32.655 40.127 32.655 39.5663C32.655 39.0055 32.455 38.4633 32.0912 38.0378C31.6515 37.6524 31.0781 37.4567 30.4956 37.4933H29.6106V41.6392H30.4956C31.0781 41.6758 31.6515 41.4802 32.0912 41.0948Z" fill="#AFB1B8"/>
<path d="M18.2886 0.75C18.2886 0.75 34.7401 6.986 34.3911 16.0099V31.2729C34.3911 31.2729 17.952 25.0338 18.2948 16.0099L18.2886 0.75Z" fill="#AFB1B8"/>
<path d="M49.0474 27.6996C52.1544 25.5528 55.7483 24.2231 59.4998 23.8322V19.0543C55.1772 20.727 51.5101 23.7601 49.0474 27.6996Z" fill="#AFB1B8"/>
<path d="M47.1809 29.139C49.7239 23.9978 54.1326 20.0305 59.5001 18.0532V4.28577C59.5001 4.28577 36.0708 13.1689 36.5663 26.0195V47.75C36.5663 47.75 37.6103 47.3527 39.2527 46.608C39.2527 45.9133 39.2527 45.2125 39.3275 44.5084C39.8124 38.5426 42.6372 33.0143 47.1809 29.139Z" fill="#AFB1B8"/>
<path d="M44.9528 37.2117C45.0758 35.7046 45.3504 34.2139 45.7724 32.7623C42.9432 36.1089 41.2299 40.2617 40.8734 44.6367C40.8391 45.0497 40.8204 45.4627 40.811 45.8883C42.1417 45.2468 43.6906 44.4458 45.3174 43.504C44.9022 41.4342 44.7795 39.3159 44.9528 37.2117Z" fill="#AFB1B8"/>
<path d="M45.8846 37.29C45.7286 39.1937 45.8261 41.1099 46.1744 42.9878C52.5755 39.1423 59.7682 33.2004 59.4908 26.0195V25.3937C54.9175 25.9075 50.6387 27.9148 47.3119 31.1071C46.533 33.0855 46.0519 35.1693 45.8846 37.29Z" fill="#AFB1B8"/>
</g>
<defs>
<clipPath id="clip0">
<rect width="59" height="47" fill="white" transform="translate(0.5 0.75)"/>
</clipPath>
</defs>
</svg>
