<svg width="41" height="53" viewBox="0 0 41 53" fill="none" xmlns="http://www.w3.org/2000/svg">
<g clip-path="url(#clip0)">
<path d="M17.4769 3.68452H17.6135C17.8665 3.68452 18.1397 3.70995 18.4104 3.73284C19.603 3.81695 20.7873 3.99551 21.952 4.26685V1.40353C20.7527 1.10263 19.5296 0.907776 18.2965 0.821202C17.8285 0.785601 17.3302 0.762715 16.8192 0.75H16.3917C13.9168 0.759307 11.4526 1.07705 9.05545 1.69596C6.32521 2.37687 3.70457 3.44275 1.27148 4.86189V33.2586C3.61421 31.9857 6.10704 31.0143 8.69117 30.3673C10.7315 29.8467 12.8174 29.5265 14.9193 29.4112H15.0028C15.3545 29.3934 15.7061 29.3832 16.0678 29.3806V26.4716C13.3366 26.5067 10.6192 26.8678 7.97273 27.5472C6.99372 27.8015 6.04761 28.0761 5.15967 28.3813L4.14778 28.7246V6.58344L4.58036 6.37492C7.88159 4.80951 11.4521 3.89863 15.0964 3.69215C15.1267 3.68994 15.1572 3.68994 15.1875 3.69215C15.5897 3.67181 15.9945 3.66163 16.3917 3.66163H16.8268H16.847C17.057 3.66672 17.2669 3.67181 17.4769 3.68452Z" fill="#AFB1B8"/>
<path d="M24.611 6.68259C23.9457 6.68259 23.288 6.6597 22.653 6.61138C21.8941 6.55544 21.1149 6.4639 20.3763 6.33929C19.926 6.26301 19.4833 6.17146 19.0532 6.07229V34.1435C20.8739 34.5943 22.7435 34.8147 24.6186 34.7996C27.0933 34.7895 29.5573 34.4727 31.9548 33.8561C34.6856 33.1743 37.3069 32.1085 39.7413 30.6902V2.79956C37.3989 4.07178 34.9071 5.04396 32.3242 5.69339C29.8034 6.34083 27.2128 6.67307 24.611 6.68259ZM35.8354 7.16828L36.8473 6.82753V28.9763L36.4147 29.1848C34.7554 29.9743 33.0226 30.5969 31.2414 31.0437C29.0784 31.6033 26.8547 31.8912 24.6211 31.9006C23.9533 31.9006 23.2905 31.8727 22.648 31.8167L21.9548 31.7557V29.0678V8.97883L22.7618 9.03224C23.3487 9.07038 23.9558 9.08818 24.6161 9.08818C27.4517 9.0781 30.2751 8.71596 33.0224 8.00998C33.9659 7.76078 34.9045 7.48106 35.8354 7.16828Z" fill="#AFB1B8"/>
<path d="M3.23726 42.9624C3.09178 42.8115 2.91641 42.693 2.72248 42.6146C2.52856 42.5362 2.32042 42.4996 2.11153 42.5072C1.88892 42.5042 1.66793 42.5457 1.46139 42.6293C1.27202 42.7047 1.09989 42.818 0.955444 42.9624C0.812573 43.1072 0.701414 43.2804 0.62911 43.471C0.549801 43.6707 0.510265 43.8841 0.512743 44.0991V47.8931C0.503695 48.1604 0.55471 48.4264 0.661996 48.6712C0.751555 48.8656 0.880847 49.0389 1.04145 49.1798C1.19308 49.3075 1.3711 49.3995 1.56258 49.4494C1.74706 49.5012 1.93768 49.5277 2.12924 49.5282C2.34053 49.5303 2.54965 49.4851 2.74143 49.396C2.93107 49.313 3.10289 49.1938 3.24737 49.045C3.38826 48.8976 3.50064 48.7252 3.57877 48.5364C3.65985 48.3451 3.70117 48.1392 3.7002 47.9312V47.5066H2.70854V47.8448C2.71149 47.9603 2.69172 48.0752 2.65036 48.183C2.61807 48.2637 2.56889 48.3366 2.50617 48.3966C2.44474 48.4462 2.37428 48.4834 2.29873 48.5059C2.23176 48.5282 2.16182 48.5402 2.09129 48.5415C2.00275 48.5518 1.91308 48.5385 1.83134 48.5027C1.74961 48.467 1.67871 48.4102 1.62582 48.3381C1.53234 48.1856 1.48652 48.0085 1.49428 47.8295V44.2923C1.48812 44.0962 1.52981 43.9015 1.6157 43.7253C1.66718 43.6452 1.74002 43.5813 1.8259 43.5408C1.91178 43.5003 2.00725 43.4849 2.10141 43.4964C2.18689 43.4934 2.27182 43.5112 2.34893 43.5484C2.42603 43.5856 2.49301 43.6411 2.54411 43.71C2.65508 43.8557 2.7131 44.0352 2.70854 44.2186V44.5466H3.69008V44.1601C3.69207 43.9331 3.65085 43.7078 3.56865 43.4964C3.49539 43.2976 3.38264 43.1159 3.23726 42.9624Z" fill="#AFB1B8"/>
<path d="M9.12867 42.9191C8.81247 42.6521 8.41337 42.5046 8.00042 42.5021C7.79843 42.5029 7.59813 42.5391 7.40846 42.6089C7.21589 42.6779 7.03816 42.7832 6.88481 42.9191C6.72052 43.0668 6.58943 43.248 6.50029 43.4506C6.40039 43.6823 6.35121 43.933 6.3561 44.1855V47.8244C6.34926 48.0804 6.39848 48.3347 6.50029 48.5695C6.59003 48.7651 6.72127 48.9387 6.88481 49.078C7.03641 49.2188 7.21444 49.3277 7.40846 49.3985C7.59813 49.4683 7.79843 49.5044 8.00042 49.5053C8.20244 49.5049 8.40282 49.4687 8.59237 49.3985C8.78971 49.3267 8.9717 49.218 9.12867 49.078C9.28685 48.9361 9.4143 48.763 9.50307 48.5695C9.60488 48.3347 9.65411 48.0804 9.64727 47.8244V44.1855C9.65215 43.933 9.60297 43.6823 9.50307 43.4506C9.41481 43.2501 9.28751 43.0694 9.12867 42.9191ZM8.66573 47.8244C8.67409 47.9214 8.6607 48.019 8.62655 48.1101C8.59241 48.2012 8.53837 48.2834 8.46842 48.3508C8.33743 48.4606 8.17226 48.5208 8.00168 48.5208C7.8311 48.5208 7.66593 48.4606 7.53495 48.3508C7.465 48.2834 7.41096 48.2012 7.37681 48.1101C7.34266 48.019 7.32927 47.9214 7.33763 47.8244V44.1855C7.32927 44.0885 7.34266 43.9909 7.37681 43.8998C7.41096 43.8087 7.465 43.7264 7.53495 43.6591C7.66593 43.5493 7.8311 43.4891 8.00168 43.4891C8.17226 43.4891 8.33743 43.5493 8.46842 43.6591C8.53837 43.7264 8.59241 43.8087 8.62655 43.8998C8.6607 43.9909 8.67409 44.0885 8.66573 44.1855V47.8244Z" fill="#AFB1B8"/>
<path d="M16.8675 49.4494V42.5607H15.9138L14.6616 46.2072H14.6439L13.3816 42.5607H12.438V49.4494H13.4221V45.2587H13.4398L14.4036 48.2212H14.8944L15.8658 45.2587H15.8835V49.4494H16.8675Z" fill="#AFB1B8"/>
<path d="M22.4582 43.0437C22.3067 42.8737 22.1154 42.7443 21.9016 42.6673C21.6713 42.5924 21.4303 42.5563 21.1883 42.5605H19.7261V49.4493H20.7076V46.7589H21.2136C21.5198 46.7728 21.8245 46.708 22.099 46.5707C22.3221 46.4468 22.5082 46.265 22.6378 46.0443C22.7513 45.8611 22.8278 45.6571 22.8629 45.4442C22.9016 45.185 22.9193 44.923 22.9161 44.661C22.9256 44.3302 22.8933 43.9995 22.8199 43.6769C22.7545 43.4385 22.63 43.2206 22.4582 43.0437ZM21.9522 45.1441C21.948 45.2688 21.9169 45.3912 21.8612 45.5027C21.8051 45.6086 21.7163 45.6934 21.6082 45.7442C21.4628 45.8093 21.3042 45.8389 21.1453 45.8307H20.6975V43.4887H21.2034C21.3558 43.4812 21.5077 43.5109 21.6461 43.5751C21.7476 43.6334 21.8282 43.7224 21.8763 43.8294C21.93 43.9504 21.9592 44.081 21.9624 44.2134C21.9624 44.3584 21.9624 44.5109 21.9624 44.6711C21.9624 44.8313 21.9725 44.9966 21.9624 45.1441H21.9522Z" fill="#AFB1B8"/>
<path d="M27.1074 42.5607H26.303L24.7852 49.4494H25.7667L26.0551 47.9694H27.3933L27.6817 49.4494H28.6632L27.1074 42.5607ZM26.2018 47.0311L26.685 44.534H26.7027L27.1833 47.0311H26.2018Z" fill="#AFB1B8"/>
<path d="M33.4496 46.7107H33.4319L31.9494 42.5607H31.0059V49.4494H31.9874V45.307H32.0076L33.5078 49.4494H34.4311V42.5607H33.4496V46.7107Z" fill="#AFB1B8"/>
<path d="M39.4476 42.5607L38.6583 45.2994H38.6381L37.8488 42.5607H36.8091L38.1574 46.5378V49.4494H39.139V46.5378L40.4873 42.5607H39.4476Z" fill="#AFB1B8"/>
<path d="M0.5 51.3945H0.973058V52.7219H1.29433V51.3945H1.76486V51.1224H0.5V51.3945Z" fill="#AFB1B8"/>
<path d="M4.47672 51.1224L3.85693 52.7219H4.19845L4.32999 52.3583H4.96748L5.10409 52.7219H5.45319L4.81823 51.1224H4.47672ZM4.42612 52.0887L4.64368 51.4962L4.86123 52.0887H4.42612Z" fill="#AFB1B8"/>
<path d="M8.40793 52.1321H8.77727V52.3381C8.66941 52.4246 8.53576 52.472 8.39781 52.4729C8.3333 52.4765 8.26886 52.4645 8.20988 52.438C8.15091 52.4114 8.09911 52.3711 8.05883 52.3203C7.97402 52.1985 7.93217 52.0517 7.93993 51.9033C7.93993 51.5473 8.09424 51.3693 8.40034 51.3693C8.48091 51.3612 8.56168 51.3825 8.62804 51.4291C8.69439 51.4757 8.74194 51.5447 8.76209 51.6235L9.07831 51.5625C9.01001 51.2497 8.78486 51.0921 8.40034 51.0921C8.19468 51.0866 7.9947 51.1603 7.84127 51.2981C7.76069 51.3776 7.69834 51.4739 7.65858 51.5802C7.61882 51.6865 7.60261 51.8002 7.61107 51.9134C7.60175 52.1323 7.67493 52.3466 7.81598 52.5136C7.89434 52.5944 7.9892 52.6571 8.09401 52.6975C8.19883 52.7379 8.3111 52.7549 8.42311 52.7475C8.67338 52.7545 8.91652 52.6633 9.10108 52.4932V51.8626H8.40793V52.1321Z" fill="#AFB1B8"/>
<path d="M12.4224 51.1224H12.0986V52.7219H13.2193V52.4498H12.4224V51.1224Z" fill="#AFB1B8"/>
<path d="M15.8175 51.1224H15.4937V52.7219H15.8175V51.1224Z" fill="#AFB1B8"/>
<path d="M19.1364 52.1905L18.4812 51.1224H18.1675V52.7219H18.4685V51.6768L19.1111 52.7219H19.4323V51.1224H19.1364V52.1905Z" fill="#AFB1B8"/>
<path d="M22.1368 52.0175H22.9337V51.7454H22.1368V51.3945H22.9944V51.1224H21.813V52.7219H23.0273V52.4498H22.1368V52.0175Z" fill="#AFB1B8"/>
<path d="M29.4121 51.7531H28.7822V51.1224H28.4609V52.7219H28.7822V52.0226H29.4121V52.7219H29.7334V51.1224H29.4121V51.7531Z" fill="#AFB1B8"/>
<path d="M32.4302 52.0175H33.2296V51.7454H32.4302V51.3945H33.2903V51.1224H32.1089V52.7219H33.3206V52.4498H32.4302V52.0175Z" fill="#AFB1B8"/>
<path d="M36.5235 52.0176C36.8018 51.9744 36.9434 51.8269 36.9434 51.5726C36.9515 51.5046 36.9412 51.4356 36.9136 51.373C36.886 51.3103 36.8421 51.2563 36.7866 51.2166C36.6417 51.1438 36.4801 51.1114 36.3186 51.1225H35.6406V52.722H35.9619V52.0532H36.0251C36.0936 52.049 36.1621 52.0612 36.225 52.0888C36.272 52.1178 36.3111 52.1579 36.3388 52.2058L36.6879 52.7144H37.0724L36.8777 52.4016C36.7916 52.2472 36.6702 52.1156 36.5235 52.0176ZM36.1997 51.7964H35.9619V51.3946H36.2149C36.3251 51.3857 36.436 51.3986 36.5412 51.4327C36.5646 51.4534 36.5831 51.4791 36.5952 51.5079C36.6074 51.5367 36.613 51.5679 36.6115 51.5992C36.61 51.6304 36.6016 51.661 36.5868 51.6885C36.572 51.716 36.5512 51.7399 36.526 51.7582C36.4204 51.7906 36.3099 51.8035 36.1997 51.7964Z" fill="#AFB1B8"/>
<path d="M39.6094 52.0175H40.4063V51.7454H39.6094V51.3945H40.4696V51.1224H39.2856V52.7219H40.4999V52.4498H39.6094V52.0175Z" fill="#AFB1B8"/>
</g>
<defs>
<clipPath id="clip0">
<rect width="40" height="52" fill="white" transform="translate(0.5 0.75)"/>
</clipPath>
</defs>
</svg>
