<svg width="42" height="44" viewBox="0 0 42 44" fill="none" xmlns="http://www.w3.org/2000/svg">
<path d="M6.84566 42.5446C6.86067 42.545 6.87546 42.5482 6.88915 42.5541C6.90284 42.56 6.91516 42.5684 6.92539 42.5789L7.13116 42.7946C6.97144 42.9691 6.77403 43.1088 6.55243 43.2039C6.29293 43.3077 6.01326 43.3578 5.73192 43.3509C5.46755 43.3561 5.20488 43.3094 4.96028 43.2137C4.73964 43.1258 4.54139 42.9937 4.37898 42.8264C4.21321 42.6529 4.08553 42.4496 4.00344 42.2284C3.91355 41.9818 3.86916 41.7223 3.87226 41.4613C3.86861 41.1986 3.9166 40.9375 4.01373 40.6917C4.10359 40.4691 4.23912 40.2658 4.41241 40.0936C4.58805 39.9249 4.79815 39.7923 5.02973 39.7039C5.28306 39.6104 5.55283 39.5638 5.82452 39.5667C6.07689 39.5608 6.32792 39.6034 6.56272 39.6917C6.76644 39.7759 6.95349 39.8928 7.11573 40.0373L6.9434 40.2677C6.93149 40.2839 6.91669 40.298 6.89967 40.3093C6.87934 40.3226 6.85477 40.3287 6.83022 40.3265C6.80353 40.3247 6.77779 40.3163 6.75563 40.302L6.66303 40.2407L6.53443 40.1623C6.47891 40.1332 6.42133 40.1078 6.36209 40.0863C6.28581 40.0603 6.20756 40.0398 6.12803 40.025C6.02709 40.0073 5.92457 39.9991 5.82195 40.0005C5.62631 39.9982 5.43215 40.0332 5.25093 40.1034C5.08192 40.1685 4.92937 40.2671 4.80338 40.3927C4.67512 40.5262 4.57629 40.6829 4.51273 40.8534C4.44029 41.0485 4.40458 41.2543 4.40727 41.4613C4.40418 41.6714 4.43988 41.8805 4.51273 42.0789C4.57549 42.248 4.6725 42.4037 4.79823 42.5372C4.91604 42.6617 5.06206 42.7589 5.22521 42.8215C5.39311 42.8879 5.57333 42.9212 5.75507 42.9196C5.86005 42.9211 5.965 42.9146 6.06887 42.9C6.23848 42.8802 6.40118 42.8241 6.54472 42.7358C6.61671 42.6905 6.68467 42.6397 6.74792 42.5838C6.77436 42.5598 6.80914 42.5458 6.84566 42.5446Z" fill="#AFB1B8"/>
<path d="M12.7871 41.4608C12.7903 41.7209 12.7432 41.9792 12.6482 42.223C12.5644 42.4441 12.4323 42.6458 12.2608 42.8148C12.0892 42.9838 11.882 43.1162 11.6528 43.2033C11.1492 43.3863 10.5925 43.3863 10.089 43.2033C9.86125 43.1148 9.65539 42.9821 9.48452 42.8136C9.31305 42.6416 9.18004 42.4382 9.09356 42.2157C8.90827 41.722 8.90827 41.1825 9.09356 40.6888C9.1813 40.4662 9.31414 40.2622 9.48452 40.0884C9.65685 39.9252 9.8626 39.7976 10.089 39.7135C10.5919 39.5272 11.1499 39.5272 11.6528 39.7135C11.8813 39.8019 12.088 39.9346 12.2598 40.1031C12.4292 40.2735 12.5612 40.4743 12.6482 40.6937C12.7435 40.9392 12.7906 41.1992 12.7871 41.4608ZM12.247 41.4608C12.251 41.2528 12.218 41.0456 12.1492 40.8481C12.0916 40.679 11.9979 40.5229 11.874 40.3899C11.7534 40.2639 11.6049 40.1652 11.4393 40.1007C11.0734 39.9667 10.6684 39.9667 10.3024 40.1007C10.1368 40.1652 9.98836 40.2639 9.86776 40.3899C9.74215 40.5222 9.64747 40.6784 9.58997 40.8481C9.4591 41.2471 9.4591 41.6746 9.58997 42.0735C9.64803 42.2431 9.74265 42.3992 9.86776 42.5318C9.98851 42.657 10.137 42.7549 10.3024 42.8185C10.669 42.9491 11.0728 42.9491 11.4393 42.8185C11.6048 42.7549 11.7533 42.657 11.874 42.5318C11.9974 42.3984 12.091 42.2425 12.1492 42.0735C12.2183 41.8761 12.2513 41.6689 12.247 41.4608Z" fill="#AFB1B8"/>
<path d="M16.8408 42.1032L16.8948 42.2404C16.9154 42.1914 16.9334 42.1473 16.9539 42.1032C16.9736 42.0571 16.9959 42.0121 17.0208 41.9684L18.3352 39.692C18.3609 39.6528 18.384 39.6283 18.4098 39.6209C18.4447 39.6108 18.4813 39.6066 18.5178 39.6087H18.9062V43.3113H18.4458V40.5888C18.4458 40.5545 18.4458 40.5153 18.4458 40.4737C18.4433 40.4312 18.4433 40.3887 18.4458 40.3462L17.1237 42.6546C17.1069 42.6891 17.08 42.7184 17.0463 42.7388C17.0125 42.7592 16.9733 42.77 16.9334 42.7697H16.8588C16.8187 42.7703 16.7794 42.7597 16.7456 42.7392C16.7118 42.7187 16.685 42.6893 16.6684 42.6546L15.3078 40.3315C15.3078 40.3756 15.3078 40.4198 15.3078 40.4639C15.3078 40.508 15.3078 40.5472 15.3078 40.5815V43.3039H14.8628V39.6087H15.2512C15.2877 39.6066 15.3243 39.6108 15.3592 39.6209C15.3911 39.636 15.4165 39.6611 15.4312 39.692L16.7739 41.9709C16.8003 42.013 16.8227 42.0573 16.8408 42.1032Z" fill="#AFB1B8"/>
<path d="M21.7869 41.9192V43.3062H21.2725V39.6085H22.4196C22.6362 39.6046 22.8521 39.6318 23.0601 39.6894C23.2266 39.7343 23.381 39.8129 23.5128 39.9197C23.627 40.0199 23.7151 40.144 23.77 40.2824C23.8307 40.4332 23.8604 40.5938 23.8575 40.7553C23.8597 40.9175 23.8274 41.0784 23.7623 41.2282C23.7005 41.3701 23.6054 41.4966 23.4845 41.5982C23.3525 41.7095 23.1974 41.793 23.0292 41.8433C22.829 41.9042 22.6195 41.9332 22.4093 41.929L21.7869 41.9192ZM21.7869 41.5223H22.4093C22.5446 41.5239 22.6792 41.5049 22.808 41.4659C22.9143 41.4318 23.0123 41.3777 23.0961 41.3066C23.1734 41.2388 23.2332 41.155 23.271 41.0616C23.3131 40.9628 23.3341 40.857 23.3327 40.7504C23.3387 40.6476 23.3211 40.5448 23.2811 40.4492C23.2412 40.3535 23.1798 40.2674 23.1013 40.1966C22.9047 40.0504 22.6579 39.9796 22.4093 39.9981H21.7869V41.5223Z" fill="#AFB1B8"/>
<path d="M28.7007 43.3112H28.2943C28.2536 43.3126 28.2135 43.3005 28.1812 43.2768C28.152 43.2538 28.1291 43.2244 28.1143 43.1911L27.7645 42.2966H26.0077L25.645 43.1911C25.6317 43.2238 25.6095 43.2525 25.5807 43.2744C25.548 43.2995 25.507 43.3125 25.465 43.3112H25.0586L26.6019 39.6082H27.1369L28.7007 43.3112ZM26.1543 41.9363H27.605L26.9928 40.4291C26.9461 40.3158 26.9074 40.1995 26.8771 40.0811L26.8179 40.2747C26.7999 40.3336 26.7794 40.3875 26.7614 40.4316L26.1543 41.9363Z" fill="#AFB1B8"/>
<path d="M30.9233 39.6254C30.9541 39.6415 30.9805 39.6641 31.0005 39.6916L33.2511 42.4829C33.2511 42.4387 33.2511 42.3946 33.2511 42.353C33.2511 42.3113 33.2511 42.2697 33.2511 42.2304V39.6082H33.7115V43.3112H33.4543C33.4178 43.3122 33.3816 43.3047 33.3489 43.2891C33.3171 43.2715 33.2892 43.2482 33.2666 43.2205L31.0185 40.4317C31.021 40.4741 31.021 40.5166 31.0185 40.5591C31.0185 40.6008 31.0185 40.6375 31.0185 40.6718V43.3112H30.5581V39.6082H30.8308C30.8626 39.6074 30.8942 39.6132 30.9233 39.6254Z" fill="#AFB1B8"/>
<path d="M37.5028 41.8384V43.3088H36.9883V41.8384L35.5659 39.6084H36.0263C36.066 39.6061 36.1052 39.6174 36.1369 39.6402C36.1649 39.664 36.1884 39.6922 36.2064 39.7235L37.0964 41.1621C37.1324 41.2233 37.1632 41.2797 37.189 41.3336C37.2147 41.3875 37.2353 41.439 37.2533 41.4905L37.3201 41.3312C37.3451 41.2729 37.3743 41.2164 37.4076 41.1621L38.2847 39.7137C38.3031 39.6848 38.3256 39.6584 38.3516 39.6353C38.3821 39.6099 38.4217 39.5967 38.4622 39.5986H38.9277L37.5028 41.8384Z" fill="#AFB1B8"/>
<path d="M16.5859 33.3943C16.8097 33.4212 17.0361 33.4433 17.265 33.4629C20.7356 31.9837 23.6716 29.5627 25.706 26.5026C27.7404 23.4424 28.783 19.8789 28.7033 16.2573L24.8785 12.6133C25.6562 16.4691 25.2925 20.455 23.8279 24.1251C22.3634 27.7952 19.8559 31.0046 16.5859 33.3943Z" fill="#AFB1B8"/>
<path d="M15.2202 33.2248L15.3231 33.2444C18.8173 30.8632 21.4814 27.538 22.9708 23.6988C24.4601 19.8597 24.7063 15.6831 23.6774 11.7092L18.2296 6.51904C20.4331 10.7853 21.32 15.5598 20.7873 20.2874C20.2546 25.015 18.324 29.5014 15.2202 33.2248Z" fill="#AFB1B8"/>
<path d="M33.6959 20.5361C32.7704 24.5154 30.5225 28.1041 27.2861 30.7696C26.341 31.5523 25.3214 32.2496 24.2407 32.8525C26.8761 32.1146 29.2983 30.8098 31.3207 29.039C33.3432 27.2681 34.9117 25.0784 35.9054 22.6387L33.6959 20.5361Z" fill="#AFB1B8"/>
<path d="M32.8292 19.9502L29.6835 16.9531C29.6233 20.3701 28.6037 23.7094 26.7306 26.6239C24.8575 29.5385 22.1993 31.9218 19.0322 33.5264H19.0477C19.7534 33.5261 20.4586 33.486 21.1594 33.4063C24.1192 32.2553 26.7339 30.4242 28.7702 28.0762C30.8064 25.7282 32.2009 22.9365 32.8292 19.9502Z" fill="#AFB1B8"/>
<path d="M15.6757 4.3303L11.9229 0.75C8.56808 1.98513 5.68278 4.15643 3.64464 6.97973C1.6065 9.80304 0.510469 13.1468 0.5 16.5734H0.5C0.512574 20.3597 1.8502 24.0338 4.30116 27.0143C6.75213 29.9948 10.1764 32.1114 14.0321 33.0291C17.474 29.0338 19.4892 24.097 19.7847 18.936C20.0803 13.775 18.6409 8.65862 15.6757 4.3303Z" fill="#AFB1B8"/>
<path d="M41.5002 19.399C41.4867 14.9068 39.6076 10.6022 36.2735 7.42574C32.9394 4.24924 28.4213 2.45898 23.7062 2.44605C21.5274 2.4439 19.3671 2.82696 17.335 3.57576L40.3119 25.4666C41.0987 23.5315 41.5016 21.4741 41.5002 19.399Z" fill="#AFB1B8"/>
</svg>
